/* XPM */
static char * emblem_danger_xpm[] = {
"48 48 169 2",
"  	c None",
". 	c #F23700",
"+ 	c #FC6200",
"@ 	c #F95200",
"# 	c #F54200",
"$ 	c #000000",
"% 	c #FDA000",
"& 	c #FE8A00",
"* 	c #FD7300",
"= 	c #FC6600",
"- 	c #D3B500",
"; 	c #F3C800",
"> 	c #F7BA00",
", 	c #F6A400",
"' 	c #F18700",
") 	c #9F9A00",
"! 	c #DAD900",
"~ 	c #E6DD00",
"{ 	c #E7D000",
"] 	c #898600",
"^ 	c #191919",
"/ 	c #2C2C2C",
"( 	c #363636",
"_ 	c #262626",
": 	c #1B1B1B",
"< 	c #111111",
"[ 	c #252525",
"} 	c #4D4D4D",
"| 	c #6B6B6B",
"1 	c #474747",
"2 	c #2D2D2D",
"3 	c #080808",
"4 	c #3B3B3B",
"5 	c #7F7F7F",
"6 	c #B6B6B6",
"7 	c #828282",
"8 	c #505050",
"9 	c #272727",
"0 	c #0C0C0C",
"a 	c #393A39",
"b 	c #808280",
"c 	c #BABDBB",
"d 	c #898B89",
"e 	c #555755",
"f 	c #282A29",
"g 	c #0C0D0D",
"h 	c #2B2C2B",
"i 	c #656865",
"j 	c #939995",
"k 	c #6F7570",
"l 	c #464B47",
"m 	c #212422",
"n 	c #090A0A",
"o 	c #040404",
"p 	c #0D0F0E",
"q 	c #232824",
"r 	c #343D36",
"s 	c #29322B",
"t 	c #1C231E",
"u 	c #0F1410",
"v 	c #030504",
"w 	c #010101",
"x 	c #030403",
"y 	c #090C0A",
"z 	c #0E130F",
"A 	c #0C110D",
"B 	c #080D09",
"C 	c #050806",
"D 	c #010201",
"E 	c #020202",
"F 	c #030303",
"G 	c #050505",
"H 	c #090909",
"I 	c #060606",
"J 	c #0D0D0D",
"K 	c #151515",
"L 	c #070707",
"M 	c #101010",
"N 	c #0F0F0F",
"O 	c #0B0B0B",
"P 	c #1F1F1F",
"Q 	c #2F2F2F",
"R 	c #383838",
"S 	c #3A3A3A",
"T 	c #181818",
"U 	c #0A0A0A",
"V 	c #171717",
"W 	c #232323",
"X 	c #515151",
"Y 	c #5C5C5C",
"Z 	c #5E5E5E",
"` 	c #595959",
" .	c #484848",
"..	c #323232",
"+.	c #1C1C1C",
"@.	c #1A1A1A",
"#.	c #222222",
"$.	c #0E0E0E",
"%.	c #5A5A5A",
"&.	c #767676",
"*.	c #858585",
"=.	c #878787",
"-.	c #818181",
";.	c #6A6A6A",
">.	c #4F4F4F",
",.	c #161616",
"'.	c #121212",
").	c #979797",
"!.	c #ACACAC",
"~.	c #AFAFAF",
"{.	c #A6A6A6",
"].	c #888888",
"^.	c #686868",
"/.	c #131313",
"(.	c #1E1E1E",
"_.	c #292929",
":.	c #2A2A2A",
"<.	c #C9C9C9",
"[.	c #CDCDCD",
"}.	c #C0C0C0",
"|.	c #9A9A9A",
"1.	c #757575",
"2.	c #202020",
"3.	c #D0D0D0",
"4.	c #C3C3C3",
"5.	c #9D9D9D",
"6.	c #787878",
"7.	c #535353",
"8.	c #303030",
"9.	c #2E2E2E",
"0.	c #B8B8B8",
"a.	c #959595",
"b.	c #727272",
"c.	c #2B2B2B",
"d.	c #343434",
"e.	c #7B7B7B",
"f.	c #5D5D5D",
"g.	c #3E3E3E",
"h.	c #212121",
"i.	c #333333",
"j.	c #373737",
"k.	c #353535",
"l.	c #444444",
"m.	c #282828",
"n.	c #393939",
"o.	c #1D1D1D",
"p.	c #525252",
"q.	c #545454",
"r.	c #3C3C3C",
"s.	c #141414",
"t.	c #242424",
"u.	c #3D3D3D",
"v.	c #414141",
"w.	c #3F3F3F",
"x.	c #434343",
"y.	c #454545",
"z.	c #404040",
"A.	c #424242",
"B.	c #494949",
"C.	c #4A4A4A",
"D.	c #464646",
"E.	c #4B4B4B",
"F.	c #4E4E4E",
"G.	c #585858",
"H.	c #555555",
"I.	c #313131",
"J.	c #565656",
"K.	c #575757",
"L.	c #4C4C4C",
"                                                                                                ",
"                                                                                                ",
"                                                                                                ",
"                                                                              .                 ",
"                                                                            + @ #               ",
"                                                  $                         % & * =             ",
"                                                                          - ; > , '             ",
"                                              $                           ) ! ~ {               ",
"                                              $                             ]                   ",
"                                                                                                ",
"                                                                                                ",
"                                            $                                                   ",
"                                        ^ / ( _ : <                                             ",
"                                        [ } | 1 2 ^ 3                                           ",
"                                        4 5 6 7 8 9 0                                           ",
"                                        a b c d e f g                                           ",
"                                        h i j k l m n                                           ",
"                                      o p q r s t u v $                                         ",
"                                $ $ $ w x y z A B C D $ w w                                     ",
"                              w w w w w $ $ $ $ $ $ $ $ w E E F                                 ",
"                            $ E o G G o E w $ $ $ $ $ $ E G 3 H I                               ",
"                          w G J K : : ^ < H F w $ $ $ $ E L 0 M N O                             ",
"                        E G N P Q R S ( 9 T U F $ $ $ $ E 3 M V T < o                           ",
"                        I N W 4 X Y Z `  ...+.H E $ $ $ E 3 < @.#.^ J                           ",
"                      E $.P 4 %.&.*.=.-.;.>...,.3 $ $ $ E 3 '.+._ #.@.O                         ",
"                      o K Q X &.).!.~.{.].^.1 [ $.$ $ $ F H /.(._.:.[ M                         ",
"                    E I : R Y *.!.<.[.}.|.1.X 2 '.$ $ $ F U K 2.:.2 :.,.                        ",
"                    E I +.S Z ].~.[.3.4.5.6.7.Q /.$ $ w o 0 V W 2 8.9.: '.                      ",
"                    w G ^ ( ` -.{.}.4.0.a.b.>.c.< $ $ E I N : 9 Q d...P K                       ",
"                    w E < 9  .;.].|.5.a.e.f.g.(.O w E G O ,.h.c.i.j.k.W T                       ",
"                    w F U T ..>.^.&.6.b.f.l.:.'.L o I O '.(.m.8.( S n.[ ^                       ",
"                    w o I O o.i.1 p.q.>.g.:.,.3 I 3 0 /.: [ 9.k.S g.r._ @.                      ",
"                    E 3 3 L O V [ 2 Q c.(.'.H L U N s.+.t./ i.R u.v.w.9 :                       ",
"                    o O J $.0 $.'.,.,.s.N 0 O $./.^ P [ c...R u.x.y.z.[                         ",
"                      J s.T /.N O U H H O N /.T (.t.m.2 ..R u.A.B. .w.P                         ",
"                      O V 2.(.: V K s.s.V : (.W m./ 9...( u.x.C.8 D.k.K                         ",
"                      I s.2.9 _ W h.h.h.t._ _./ Q ..d.R u.y.E.X 7.r.2.                          ",
"                        N @.:.9.Q 9.9.9.8...d.k.( n.r.v.D.F.7.q.} 9.H                           ",
"                        I N h.9.R n.n.n.S r.u.g.z.x. .} p.G.H.C.2 ^ F                           ",
"                          L /.W I.4 w.v.x.l.D. .E.F.p.J.K.X x.I.^ 0                             ",
"                            o /.W d.u.l. .L.F.X 7.H.J.J.8 w.:.,.3                               ",
"                              L $.T _ d.l.F.H.G.K.7.C.r./ +.M I                                 ",
"                                G 0 ,.P m.2 8.I.I.Q c.#.T 0                                     ",
"                                      $ $ $ $ $ $ $ $                                           ",
"                                                                                                ",
"                                                                                                ",
"                                                                                                ",
"                                                                                                "};
