/* XPM */
static char * file_manager_xpm[] = {
"48 48 265 2",
"  	c None",
". 	c #0D0D0C",
"+ 	c #F7F6EB",
"@ 	c #DBD99B",
"# 	c #BBB880",
"$ 	c #F0EFD8",
"% 	c #EAE9DE",
"& 	c #F0F0EA",
"* 	c #6F6C51",
"= 	c #C9C69F",
"- 	c #B2AF7A",
"; 	c #B1AE79",
"> 	c #B0AD78",
", 	c #AFAB77",
"' 	c #AFAA77",
") 	c #AEAA76",
"! 	c #ADA974",
"~ 	c #ACA874",
"{ 	c #ACA774",
"] 	c #ABA773",
"^ 	c #AAA672",
"/ 	c #A9A673",
"( 	c #A9A573",
"_ 	c #A8A572",
": 	c #A7A371",
"< 	c #A6A370",
"[ 	c #A6A270",
"} 	c #A6A170",
"| 	c #A4A170",
"1 	c #A4A06E",
"2 	c #A29F6E",
"3 	c #8C885A",
"4 	c #B0AC78",
"5 	c #ACA975",
"6 	c #AAA572",
"7 	c #A7A271",
"8 	c #A49F6E",
"9 	c #A29E6E",
"0 	c #8B8759",
"a 	c #C7C59F",
"b 	c #DDDBC7",
"c 	c #C9C6A5",
"d 	c #C8C6A6",
"e 	c #C7C4A5",
"f 	c #C6C3A4",
"g 	c #C5C2A3",
"h 	c #C4C2A4",
"i 	c #C4C1A2",
"j 	c #C3C1A3",
"k 	c #C2BFA2",
"l 	c #C1BEA1",
"m 	c #AEAB8E",
"n 	c #A29D6E",
"o 	c #A19D6D",
"p 	c #898659",
"q 	c #A4A16C",
"r 	c #A4A06C",
"s 	c #A39F6B",
"t 	c #A29F6A",
"u 	c #A29D6A",
"v 	c #A19E69",
"w 	c #A09C68",
"x 	c #A09C66",
"y 	c #A09B66",
"z 	c #9F9B67",
"A 	c #9F9B65",
"B 	c #9E9A63",
"C 	c #9D9962",
"D 	c #9D9862",
"E 	c #9D9863",
"F 	c #9C9861",
"G 	c #8B8857",
"H 	c #403F2C",
"I 	c #9F9B6A",
"J 	c #898457",
"K 	c #C6C4A0",
"L 	c #C8C5A6",
"M 	c #A39E6B",
"N 	c #A09B68",
"O 	c #9F9C67",
"P 	c #9E9963",
"Q 	c #9D9963",
"R 	c #9C9761",
"S 	c #9A9661",
"T 	c #8C8756",
"U 	c #323023",
"V 	c #9E9B6B",
"W 	c #888558",
"X 	c #C5C39F",
"Y 	c #A29D68",
"Z 	c #A19D69",
"` 	c #9F9A65",
" .	c #9A9761",
"..	c #9A9660",
"+.	c #999660",
"@.	c #8B8757",
"#.	c #9E9969",
"$.	c #878357",
"%.	c #C5C29D",
"&.	c #767248",
"*.	c #5A5736",
"=.	c #585636",
"-.	c #585536",
";.	c #585436",
">.	c #5F5C3B",
",.	c #9B9660",
"'.	c #9A9560",
").	c #999560",
"!.	c #989560",
"~.	c #898555",
"{.	c #312F22",
"].	c #9D9869",
"^.	c #858157",
"/.	c #AEAB85",
"(.	c #989360",
"_.	c #888454",
":.	c #9C9868",
"<.	c #848156",
"[.	c #C3C19D",
"}.	c #AEA984",
"|.	c #989460",
"1.	c #97935F",
"2.	c #97925F",
"3.	c #878355",
"4.	c #9C9766",
"5.	c #838055",
"6.	c #C2BF9C",
"7.	c #A19C67",
"8.	c #6B6842",
"9.	c #AFAD86",
"0.	c #ADAA85",
"a.	c #A29E74",
"b.	c #96935F",
"c.	c #95925F",
"d.	c #868354",
"e.	c #312F21",
"f.	c #9B9565",
"g.	c #837F55",
"h.	c #C1BF9B",
"i.	c #A8A472",
"j.	c #99945F",
"k.	c #96915E",
"l.	c #95915F",
"m.	c #94905E",
"n.	c #858253",
"o.	c #312E21",
"p.	c #9A9564",
"q.	c #827E54",
"r.	c #C1BE9B",
"s.	c #C3C0A3",
"t.	c #96925F",
"u.	c #94915E",
"v.	c #938F5D",
"w.	c #999463",
"x.	c #817D53",
"y.	c #C1BD9B",
"z.	c #AFAC8F",
"A.	c #8F8A59",
"B.	c #8E8958",
"C.	c #8C8958",
"D.	c #8A8756",
"E.	c #8A8656",
"F.	c #898455",
"G.	c #888354",
"H.	c #878455",
"I.	c #868254",
"J.	c #78744A",
"K.	c #212017",
"L.	c #989262",
"M.	c #807C52",
"N.	c #BFBD9A",
"O.	c #A4A070",
"P.	c #86826F",
"Q.	c #232219",
"R.	c #232218",
"S.	c #232118",
"T.	c #222118",
"U.	c #222017",
"V.	c #504E34",
"W.	c #969161",
"X.	c #BEBC99",
"Y.	c #A19E6D",
"Z.	c #A09C6C",
"`.	c #9F9A6A",
" +	c #9E9A69",
".+	c #9D9969",
"++	c #9D9868",
"@+	c #9C9768",
"#+	c #9B9665",
"$+	c #9A9464",
"%+	c #989362",
"&+	c #969262",
"*+	c #959161",
"=+	c #7F7C53",
"-+	c #BDBA98",
";+	c #959061",
">+	c #7E7B52",
",+	c #BDBA97",
"'+	c #7D7A4F",
")+	c #55533A",
"!+	c #938F60",
"~+	c #7C7852",
"{+	c #A09B6C",
"]+	c #7D784D",
"^+	c #201F16",
"/+	c #928E5F",
"(+	c #7B7850",
"_+	c #BCB896",
":+	c #7C784E",
"<+	c #908D5F",
"[+	c #7A784F",
"}+	c #BBB795",
"|+	c #9E9A6B",
"1+	c #7B774D",
"2+	c #8F8B5E",
"3+	c #797650",
"4+	c #BAB796",
"5+	c #7A764C",
"6+	c #201E16",
"7+	c #8E8A5E",
"8+	c #78754F",
"9+	c #B9B695",
"0+	c #78744C",
"a+	c #1F1E16",
"b+	c #8D895D",
"c+	c #76744E",
"d+	c #B8B594",
"e+	c #757250",
"f+	c #78754C",
"g+	c #1F1E15",
"h+	c #8B885D",
"i+	c #9C9666",
"j+	c #B6B394",
"k+	c #B7B393",
"l+	c #7F7C50",
"m+	c #7F7B4F",
"n+	c #7D794F",
"o+	c #7C794E",
"p+	c #7C784C",
"q+	c #7C774C",
"r+	c #7B764D",
"s+	c #B6B392",
"t+	c #999363",
"u+	c #716E4A",
"v+	c #211F16",
"w+	c #4B4932",
"x+	c #B4B292",
"y+	c #969261",
"z+	c #969162",
"A+	c #939060",
"B+	c #938E60",
"C+	c #918D5F",
"D+	c #A5A285",
"E+	c #807B52",
"F+	c #7F7B53",
"G+	c #7E7A52",
"H+	c #7C7952",
"I+	c #7B7851",
"J+	c #7A774F",
"K+	c #797750",
"L+	c #78764F",
"M+	c #77744F",
"N+	c #666342",
"O+	c #0B0B0A",
"P+	c #0A0A09",
"                                                                                                ",
"                                                                                                ",
"                                                                                                ",
"                                                                                                ",
"                                                                                                ",
"                                                                                                ",
"                            . . . . . . . . . . . . . . . . . . . . .                           ",
"                          . + @ @ @ @ @ @ @ @ @ @ @ @ @ @ @ @ @ @ @ # .                         ",
"                        . $ @ @ @ @ @ @ @ @ @ @ @ @ @ @ @ @ @ @ @ @ @ # .                       ",
"                      . $ @ @ @ @ @ @ @ @ @ @ @ @ @ @ @ @ @ @ @ @ @ @ @ # .                     ",
"                    . % & & & & & & & & & & & & & & & & & & & & & & & & & * .                   ",
"                    . = - ; ; > , , ' ) ! ~ ~ { ] ^ ^ / ( _ : < [ } | 1 2 3 .                   ",
"                    . = ; > 4 ' , ) ! 5 { ~ ] ^ / 6 / _ : 7 [ [ | 1 8 2 9 0 .                   ",
"                    . a > , b c d d d e e e f f g g h i j k k k l l m n o p .                   ",
"                    . a , ' d q q r q s t u u v w x y z A B C D E F G H I J .                   ",
"                    . K ) ! L q q s M u t v w N y O A B P D Q F R S T U V W .                   ",
"                    . X ! ~ e r s t t Y Z w x O z ` B C Q E R  ...+.@.U #.$..                   ",
"                    . %.{ ~ e t u u v w x &.*.*.=.-.;.>.G  .,.'.).!.~.{.].^..                   ",
"                    . %.] ^ f t v Z N x O *.` P C Q F R /...+.!.(.(._.{.:.<..                   ",
"                    . [.^ ^ f Z w x O z ` =.C Q E R  ...}.).(.|.1.2.3.{.4.5..                   ",
"                    . 6.6 / h 7.y O A B P 8.9./././.}.0.a.|.(.2.b.c.d.e.f.g..                   ",
"                    . h._ i.i O A ` P C Q F R S ..+.j.(.(.1.b.k.l.m.n.o.p.q..                   ",
"                    . r.: < s.A B C D E F  ...'.).!.|.1.2.t.c.u.v.v.n.o.w.x..                   ",
"                    . y.< [ z.A.B.C.G G @.T G D.E.F.G.H.d.d.I.n.n.n.J.K.L.M..                   ",
"                    . N.| O.P.Q.Q.Q.R.R.S.T.T.T.T.T.T.T.U.U.K.K.K.K.K.V.W.M..                   ",
"                    . X.1 2 9 9 Y.Z.I `.V  +.+++@+:.4.#+f.$+p.w.%+L.W.&+*+=+.                   ",
"                    . -+2 9 b c d d d e e e f f g g h i j k k k l l m ;+;+>+.                   ",
"                    . ,+n Y.d q q r q s t u u v w x y z A B C D E F '+)+!+~+.                   ",
"                    . ,+Z.{+L q q s M u t v w N y O A B P D Q F R S ]+^+/+(+.                   ",
"                    . _+I V e r s t t Y Z w x O z ` B C Q E R  ...+.:+^+<+[+.                   ",
"                    . }+|+ +e t u u v w x &.*.*.=.-.;.>.G  .,.'.).!.1+^+2+3+.                   ",
"                    . 4+.+].f t v Z N x O *.` P C Q F R /...+.!.(.(.5+6+7+8+.                   ",
"                    . 9+:.:.f Z w x O z ` =.C Q E R  ...}.).(.|.1.2.0+a+b+c+.                   ",
"                    . d+:.4.h 7.y O A B P e+9./././.}.0.a.|.(.2.b.c.f+g+h+c+.                   ",
"                    . d+i+f.i O A ` P C Q F R S ..+.j.(.(.1.b.k.l.m.J.g+h+c+.                   ",
"                    . j+p.$+s.A B C D E F  ...'.).!.|.1.2.t.c.u.v.v.J.g+h+c+.                   ",
"                    . k+p.w.z.l+m+'+'+'+n+]+o+p+q+r+5+f+f+f+f+J.J.J.J.g+h+c+.                   ",
"                    . s+t+L.u+K.v+v+v+^+^+^+^+^+^+6+6+a+g+g+g+g+g+g+g+w+h+c+.                   ",
"                    . x+y+W.z+*+;+A+!+B+/+<+C+2+2+7+b+b+h+h+h+h+h+h+h+h+h+c+.                   ",
"                    . D+M.M.E+F+G+H+(+(+I+J+K+L+8+M+c+c+c+c+c+c+c+c+c+c+c+N+.                   ",
"                    O+. . . . . . . . . . . . . . . . . . . . . . . . . . . P+                  ",
"                                                                                                ",
"                                                                                                ",
"                                                                                                ",
"                                                                                                ",
"                                                                                                ",
"                                                                                                ",
"                                                                                                "};
