/* XPM */
static char * firefox_xpm[] = {
"32 32 701 2",
"  	c None",
". 	c #FFFFFF",
"+ 	c #D7D7E7",
"@ 	c #8484B5",
"# 	c #263485",
"$ 	c #1D3887",
"% 	c #1E4F99",
"& 	c #0954A0",
"* 	c #0C5FA9",
"= 	c #0B539D",
"- 	c #154C97",
"; 	c #133283",
"> 	c #18287C",
", 	c #545B9D",
"' 	c #B4B4D2",
") 	c #FBFBFC",
"! 	c #E1E1ED",
"~ 	c #6165A2",
"{ 	c #1F317D",
"] 	c #064087",
"^ 	c #046DAB",
"/ 	c #0A8AC2",
"( 	c #1099CE",
"_ 	c #16ACDD",
": 	c #1CB8E8",
"< 	c #1AA9DD",
"[ 	c #1697CF",
"} 	c #118BC5",
"| 	c #0B79B5",
"1 	c #044D90",
"2 	c #0B236A",
"3 	c #1F266D",
"4 	c #A9A9C0",
"5 	c #F4F4F4",
"6 	c #FDFDFD",
"7 	c #FBECE1",
"8 	c #F7D1B7",
"9 	c #BDBDD7",
"0 	c #232B7A",
"a 	c #042F76",
"b 	c #005594",
"c 	c #0168A6",
"d 	c #0573AE",
"e 	c #0A7FB6",
"f 	c #1091C7",
"g 	c #18AEE0",
"h 	c #1FBAEA",
"i 	c #22BFEE",
"j 	c #189AD2",
"k 	c #1187C1",
"l 	c #0B7AB6",
"m 	c #0768A2",
"n 	c #7C5733",
"o 	c #AB6525",
"p 	c #6F4529",
"q 	c #5C5161",
"r 	c #C8C8CC",
"s 	c #F3F3F3",
"t 	c #FEFEFE",
"u 	c #E98E52",
"v 	c #E89159",
"w 	c #A6A6C8",
"x 	c #0F1965",
"y 	c #002E72",
"z 	c #004688",
"A 	c #005191",
"B 	c #015891",
"C 	c #04598B",
"D 	c #797166",
"E 	c #0D81B6",
"F 	c #17ADDF",
"G 	c #1DB9E9",
"H 	c #1FBBEB",
"I 	c #1696CE",
"J 	c #107FBC",
"K 	c #0B74B2",
"L 	c #0666A3",
"M 	c #025086",
"N 	c #5C4934",
"O 	c #FDCC4C",
"P 	c #FEDD6C",
"Q 	c #AF6A27",
"R 	c #9E9897",
"S 	c #E8E8E8",
"T 	c #FCFCFC",
"U 	c #D75B15",
"V 	c #D45614",
"W 	c #362957",
"X 	c #001F5B",
"Y 	c #002B63",
"Z 	c #00336A",
"` 	c #00386A",
" .	c #826E56",
"..	c #F9D298",
"+.	c #AF6948",
"@.	c #0C80B5",
"#.	c #15B0E1",
"$.	c #18B4E4",
"%.	c #169DD4",
"&.	c #1288C3",
"*.	c #0D77B4",
"=.	c #0A77B4",
"-.	c #0562A1",
";.	c #015695",
">.	c #004179",
",.	c #5D4730",
"'.	c #FEE56B",
").	c #FFF7A0",
"!.	c #F0A33A",
"~.	c #988673",
"{.	c #E4E4E4",
"].	c #F5DCD1",
"^.	c #CD470E",
"/.	c #CB440E",
"(.	c #CD521B",
"_.	c #B67D51",
":.	c #D69359",
"<.	c #D79459",
"[.	c #DC8849",
"}.	c #FA9F60",
"|.	c #E67436",
"1.	c #245878",
"2.	c #0A89BF",
"3.	c #10A5D8",
"4.	c #0E89C5",
"5.	c #0E84C2",
"6.	c #0E8EC5",
"7.	c #0C8FC6",
"8.	c #0AA4D6",
"9.	c #0597CA",
"0.	c #005092",
"a.	c #004586",
"b.	c #003168",
"c.	c #A36926",
"d.	c #FFF779",
"e.	c #FFFB9B",
"f.	c #F2AA3A",
"g.	c #9B8F83",
"h.	c #ECECEC",
"i.	c #E5B4A4",
"j.	c #C3360B",
"k.	c #DE5111",
"l.	c #F07029",
"m.	c #F27D36",
"n.	c #F1823A",
"o.	c #F18A41",
"p.	c #F26C22",
"q.	c #C34714",
"r.	c #60484C",
"s.	c #079DCE",
"t.	c #0BA5D7",
"u.	c #0CA7D8",
"v.	c #0CA0D4",
"w.	c #0CA6D8",
"x.	c #09A3D5",
"y.	c #069FD2",
"z.	c #019BCD",
"A.	c #005293",
"B.	c #0082BA",
"C.	c #003475",
"D.	c #0F2B4F",
"E.	c #F0A72F",
"F.	c #FFFA90",
"G.	c #FFF379",
"H.	c #C7872D",
"I.	c #BDBDBD",
"J.	c #F7F7F7",
"K.	c #B27A7B",
"L.	c #DD4B07",
"M.	c #E6550A",
"N.	c #E55505",
"O.	c #E55704",
"P.	c #E65A07",
"Q.	c #E75E09",
"R.	c #EE6617",
"S.	c #EF671C",
"T.	c #AF2407",
"U.	c #35212A",
"V.	c #027AA2",
"W.	c #048DBB",
"X.	c #069ACA",
"Y.	c #07A0D2",
"Z.	c #06A0D2",
"`.	c #049DD0",
" +	c #019ACD",
".+	c #0094C9",
"++	c #0088C0",
"@+	c #005999",
"#+	c #00609F",
"$+	c #005A93",
"%+	c #5E4E37",
"&+	c #FFE353",
"*+	c #FFF27B",
"=+	c #FFDE4C",
"-+	c #8F6B46",
";+	c #DEDEDE",
">+	c #95463C",
",+	c #E04D00",
"'+	c #E35100",
")+	c #E45402",
"!+	c #E9600B",
"~+	c #E95E0C",
"{+	c #C53C08",
"]+	c #A71E03",
"^+	c #84290B",
"/+	c #3A2214",
"(+	c #0D7494",
"_+	c #0199CB",
":+	c #0099CC",
"<+	c #0096CA",
"[+	c #0092C7",
"}+	c #008CC3",
"|+	c #0086BF",
"1+	c #007EBA",
"2+	c #0076B5",
"3+	c #006BAA",
"4+	c #0F496F",
"5+	c #F3B138",
"6+	c #FFEA65",
"7+	c #FFE454",
"8+	c #CF972C",
"9+	c #B8B8B8",
"0+	c #C7ABB0",
"a+	c #D64E07",
"b+	c #E25000",
"c+	c #E85D09",
"d+	c #E85C09",
"e+	c #E1580B",
"f+	c #C93F06",
"g+	c #E58F65",
"h+	c #CB9D85",
"i+	c #007CAC",
"j+	c #008FC5",
"k+	c #008CC4",
"l+	c #0088C1",
"m+	c #0083BE",
"n+	c #006FAD",
"o+	c #0071B0",
"p+	c #0070B0",
"q+	c #0068AB",
"r+	c #004E88",
"s+	c #B1732A",
"t+	c #FFDF4F",
"u+	c #FFDA41",
"v+	c #FFCA38",
"w+	c #8D8173",
"x+	c #B7654C",
"y+	c #DA4200",
"z+	c #E04C00",
"A+	c #EA6412",
"B+	c #E86B1B",
"C+	c #EDA77B",
"D+	c #A69082",
"E+	c #006897",
"F+	c #007FB7",
"G+	c #0085BE",
"H+	c #0079B5",
"I+	c #006DAB",
"J+	c #007AB8",
"K+	c #004A8D",
"L+	c #004285",
"M+	c #0062A5",
"N+	c #0061A6",
"O+	c #00307A",
"P+	c #7E542B",
"Q+	c #FFC839",
"R+	c #FFCF38",
"S+	c #FFCC38",
"T+	c #8C6A3B",
"U+	c #D3D3D3",
"V+	c #FBFBFB",
"W+	c #AF2916",
"X+	c #D13300",
"Y+	c #E75B08",
"Z+	c #EA6614",
"`+	c #ED7020",
" @	c #EF7A2B",
".@	c #E1772D",
"+@	c #005581",
"@@	c #0075B1",
"#@	c #007BB8",
"$@	c #0065A5",
"%@	c #004385",
"&@	c #004185",
"*@	c #0069AB",
"=@	c #003579",
"-@	c #00488D",
";@	c #004897",
">@	c #001D6F",
",@	c #4E4338",
"'@	c #FEBF37",
")@	c #FFC838",
"!@	c #FFC538",
"~@	c #986E2D",
"{@	c #C0C0C0",
"]@	c #F6F6F6",
"^@	c #821F29",
"/@	c #D73D00",
"(@	c #E55705",
"_@	c #E85E0B",
":@	c #EB6817",
"<@	c #ED7323",
"[@	c #EF7D2E",
"}@	c #F2873A",
"|@	c #F49145",
"1@	c #395764",
"2@	c #006CAC",
"3@	c #0070B1",
"4@	c #0071B1",
"5@	c #0065A7",
"6@	c #00377C",
"7@	c #003477",
"8@	c #002F73",
"9@	c #002B6F",
"0@	c #00367C",
"a@	c #00529C",
"b@	c #004287",
"c@	c #7E562D",
"d@	c #FEB937",
"e@	c #FFC038",
"f@	c #FFBD38",
"g@	c #976F27",
"h@	c #B2B2B2",
"i@	c #F0F0F0",
"j@	c #A41E12",
"k@	c #E55604",
"l@	c #E65907",
"m@	c #DD560B",
"n@	c #B33006",
"o@	c #A01E02",
"p@	c #A53708",
"q@	c #5C4739",
"r@	c #7F583A",
"s@	c #455661",
"t@	c #0062A4",
"u@	c #0066AA",
"v@	c #0067AA",
"w@	c #0065AA",
"x@	c #0064A9",
"y@	c #005196",
"z@	c #00266A",
"A@	c #002366",
"B@	c #002266",
"C@	c #003B85",
"D@	c #002562",
"E@	c #7E5329",
"F@	c #FEB337",
"G@	c #FFB938",
"H@	c #FFB638",
"I@	c #906627",
"J@	c #ACACAC",
"K@	c #EDEDED",
"L@	c #B11406",
"M@	c #CE2E00",
"N@	c #E15405",
"O@	c #AC2B06",
"P@	c #A92705",
"Q@	c #AE2D07",
"R@	c #5A321F",
"S@	c #00407B",
"T@	c #004F92",
"U@	c #00559A",
"V@	c #005AA1",
"W@	c #005CA3",
"X@	c #005BA3",
"Y@	c #005AA2",
"Z@	c #0058A0",
"`@	c #002468",
" #	c #001E61",
".#	c #001B5D",
"+#	c #001859",
"@#	c #001556",
"##	c #00174E",
"$#	c #BE752A",
"%#	c #FEAD37",
"&#	c #FFB138",
"*#	c #FFAE38",
"=#	c #8C5F27",
"-#	c #AAAAAA",
";#	c #EBEBEB",
">#	c #B11003",
",#	c #C82400",
"'#	c #D84D05",
")#	c #B33208",
"!#	c #B53308",
"~#	c #BA390A",
"{#	c #DB5F0D",
"]#	c #2C3140",
"^#	c #004183",
"/#	c #00498E",
"(#	c #00488B",
"_#	c #004380",
":#	c #003F78",
"<#	c #003F7A",
"[#	c #004687",
"}#	c #004A95",
"|#	c #00256B",
"1#	c #001758",
"2#	c #001455",
"3#	c #001251",
"4#	c #000E4B",
"5#	c #101C44",
"6#	c #FD9A34",
"7#	c #FEAB37",
"8#	c #FFAA38",
"9#	c #FFA738",
"0#	c #895A28",
"a#	c #A41D0A",
"b#	c #B90A00",
"c#	c #DB5006",
"d#	c #C03D0B",
"e#	c #C1410C",
"f#	c #C5450D",
"g#	c #E8630E",
"h#	c #DC6210",
"i#	c #593523",
"j#	c #3C3237",
"k#	c #5A3928",
"l#	c #CA6523",
"m#	c #F28038",
"n#	c #F58F4D",
"o#	c #B38457",
"p#	c #003B82",
"q#	c #003581",
"r#	c #001354",
"s#	c #000E4D",
"t#	c #000C4A",
"u#	c #000F47",
"v#	c #7E5129",
"w#	c #FD9C34",
"x#	c #FEA437",
"y#	c #FFA238",
"z#	c #FF9F38",
"A#	c #9F6328",
"B#	c #B5B5B5",
"C#	c #972113",
"D#	c #B30000",
"E#	c #E35705",
"F#	c #CC490C",
"G#	c #CE4C0F",
"H#	c #D05212",
"I#	c #D2500D",
"J#	c #D5530E",
"K#	c #ED6C13",
"L#	c #EE6F16",
"M#	c #ED6E1B",
"N#	c #F0761B",
"O#	c #EF751C",
"P#	c #DD5E17",
"Q#	c #D68447",
"R#	c #001855",
"S#	c #000B46",
"T#	c #000943",
"U#	c #00073B",
"V#	c #10102E",
"W#	c #EC8E2F",
"X#	c #FDA134",
"Y#	c #FEAF37",
"Z#	c #6B6668",
"`#	c #7A444D",
" $	c #BF1400",
".$	c #E55805",
"+$	c #E25909",
"@$	c #DA5711",
"#$	c #DC5E15",
"$$	c #DD6417",
"%$	c #9F1F05",
"&$	c #BF3D0A",
"*$	c #CA470D",
"=$	c #D04B0E",
"-$	c #CD420C",
";$	c #B93D0D",
">$	c #16244E",
",$	c #002367",
"'$	c #000942",
")$	c #000843",
"!$	c #00073D",
"~$	c #1F142B",
"{$	c #5D3821",
"]$	c #BB6F26",
"^$	c #FC9732",
"/$	c #FEE370",
"($	c #FFB054",
"_$	c #CE802F",
":$	c #666666",
"<$	c #C5C5C5",
"[$	c #EFEFEF",
"}$	c #A3A3AF",
"|$	c #B60900",
"1$	c #E75B07",
"2$	c #E75F0C",
"3$	c #E96513",
"4$	c #EC6915",
"5$	c #D75510",
"6$	c #992406",
"7$	c #A12807",
"8$	c #922E0E",
"9$	c #4C282C",
"0$	c #002068",
"a$	c #002679",
"b$	c #000E50",
"c$	c #00053D",
"d$	c #000438",
"e$	c #00022B",
"f$	c #CA7224",
"g$	c #7D491C",
"h$	c #FB9430",
"i$	c #FDC13B",
"j$	c #FFF9A1",
"k$	c #A5A5A6",
"l$	c #D5D5D5",
"m$	c #DADADB",
"n$	c #7E1910",
"o$	c #B60500",
"p$	c #DB4402",
"q$	c #E85E0A",
"r$	c #E9620C",
"s$	c #EC6811",
"t$	c #EE6B16",
"u$	c #CB5D12",
"v$	c #1E0E27",
"w$	c #000048",
"x$	c #001065",
"y$	c #001C77",
"z$	c #001A71",
"A$	c #000336",
"B$	c #000231",
"C$	c #0F0923",
"D$	c #9A561D",
"E$	c #F98D2B",
"F$	c #FA902D",
"G$	c #FCA530",
"H$	c #FFF985",
"I$	c #FED968",
"J$	c #FF9E37",
"K$	c #DF8B31",
"L$	c #71717E",
"M$	c #BBBBBB",
"N$	c #F9F9F9",
"O$	c #F5F5F5",
"P$	c #848495",
"Q$	c #D84204",
"R$	c #EA650E",
"S$	c #EB6911",
"T$	c #EE6C14",
"U$	c #964815",
"V$	c #2D1932",
"W$	c #000E54",
"X$	c #000C4C",
"Y$	c #0F0E34",
"Z$	c #5C3219",
"`$	c #D77621",
" %	c #F68728",
".%	c #FCAF2E",
"+%	c #FFEE64",
"@%	c #FFF68A",
"#%	c #FDA035",
"$%	c #A2A2A3",
"%%	c #C4C4C4",
"&%	c #D7D7D7",
"*%	c #76201B",
"=%	c #C62203",
"-%	c #E15209",
";%	c #EE6E16",
">%	c #EF7218",
",%	c #F1791D",
"'%	c #F37D1F",
")%	c #F48022",
"!%	c #F27D21",
"~%	c #EB701C",
"{%	c #ED761D",
"]%	c #F9B532",
"^%	c #FEE454",
"/%	c #FEEF70",
"(%	c #FDC447",
"_%	c #FD9B35",
":%	c #7D7D88",
"<%	c #B7B7B7",
"[%	c #DBDBDB",
"}%	c #A6A6AC",
"|%	c #A51302",
"1%	c #C41E04",
"2%	c #D53F09",
"3%	c #E0550E",
"4%	c #EE6A16",
"5%	c #EF6E18",
"6%	c #E96516",
"7%	c #E86215",
"8%	c #E35913",
"9%	c #E05510",
"0%	c #E87B14",
"a%	c #F3AC1B",
"b%	c #F9C82A",
"c%	c #FDDC47",
"d%	c #FDC840",
"e%	c #FC9733",
"f%	c #CD7E2C",
"g%	c #5B5667",
"h%	c #E5E5E5",
"i%	c #7F7F8E",
"j%	c #A51403",
"k%	c #BA0D03",
"l%	c #C62207",
"m%	c #D43A0B",
"n%	c #CB2F05",
"o%	c #CA3403",
"p%	c #D75908",
"q%	c #E37E0D",
"r%	c #EB9513",
"s%	c #F2A919",
"t%	c #F7BB1F",
"u%	c #F9B32B",
"v%	c #EC8E30",
"w%	c #433D57",
"x%	c #A8A8A8",
"y%	c #BFBFBF",
"z%	c #DFDFDF",
"A%	c #F8F8F8",
"B%	c #DADADA",
"C%	c #81818C",
"D%	c #A61503",
"E%	c #B60600",
"F%	c #BE1900",
"G%	c #C93502",
"H%	c #D55406",
"I%	c #DF700B",
"J%	c #E88811",
"K%	c #EE9A17",
"L%	c #F08D1D",
"M%	c #F28025",
"N%	c #CC7728",
"O%	c #4C404D",
"P%	c #9F9FA2",
"Q%	c #D6D6D6",
"R%	c #888892",
"S%	c #8C1C0D",
"T%	c #B50601",
"U%	c #B50300",
"V%	c #B80900",
"W%	c #C02000",
"X%	c #CE4204",
"Y%	c #D85C09",
"Z%	c #DF650F",
"`%	c #E35D14",
" &	c #E96B1B",
".&	c #B35C1D",
"+&	c #595362",
"@&	c #A6A6A6",
"#&	c #B9B9B9",
"$&	c #D0D0D0",
"%&	c #EEEEEE",
"&&	c #D9D9D9",
"*&	c #A6A6A8",
"=&	c #5B495B",
"-&	c #941908",
";&	c #B60B02",
">&	c #B70700",
",&	c #BC1000",
"'&	c #C52203",
")&	c #CD3007",
"!&	c #D6430D",
"~&	c #B64A14",
"{&	c #623A32",
"]&	c #8A8A8E",
"^&	c #ABABAB",
"/&	c #CFCFCF",
"(&	c #E0E0E0",
"_&	c #BEBEBE",
":&	c #A2A2A2",
"<&	c #606078",
"[&	c #55212C",
"}&	c #881B0E",
"|&	c #951C0B",
"1&	c #B31605",
"2&	c #B31606",
"3&	c #B51A06",
"4&	c #AD2409",
"5&	c #9A2A0F",
"6&	c #722B1F",
"7&	c #4A3E55",
"8&	c #8C8C90",
"9&	c #A5A5A5",
"0&	c #B3B3B3",
"a&	c #B1B1B1",
"b&	c #A3A3A3",
"c&	c #707084",
"d&	c #4B4B73",
"e&	c #6E6E83",
"f&	c #80808C",
"g&	c #98989A",
"h&	c #AFAFAF",
"i&	c #CACACA",
"j&	c #E2E2E2",
"k&	c #E9E9E9",
"l&	c #C8C8C8",
"m&	c #D1D1D1",
"n&	c #E3E3E3",
"o&	c #FAFAFA",
"p&	c #F1F1F1",
"q&	c #D8D8D8",
"r&	c #DDDDDD",
". . . . . . . . + @ # $ % & * = - ; > , ' ) . . . . . . . . . . ",
". . . . . . ! ~ { ] ^ / ( _ : < [ } | 1 2 3 4 5 6 . . . . . . . ",
". . 7 8 . 9 0 a b c d e f g h i j k l m n o p q r s t . . . . . ",
". . u v w x y z A B C D E F G H I J K L M N O P Q R S T . . . . ",
". . U V W X Y Z `  ...+.@.#.$.%.&.*.=.-.;.>.,.'.).!.~.{.6 . . . ",
". ].^./.(._.:.<.[.}.|.1.2.3.4.5.6.7.8.9.0.a.b.c.d.e.f.g.h.t . . ",
". i.j.k.l.m.n.o.p.}.q.r.s.t.u.v.w.x.y.z.A.B.C.D.E.F.G.H.I.J.. . ",
". K.L.M.N.O.P.Q.R.S.T.U.V.W.X.Y.Z.`. +.+++@+#+$+%+&+*+=+-+;+t . ",
". >+,+'+)+O.P.Q.!+~+{+]+^+/+(+_+:+<+[+}+|+1+2+3+4+5+6+7+8+9+J.. ",
"0+a+b+'+)+O.P.c+d+d+e+f+g+h+i+j+j+k+l+m+n+o+p+q+r+s+t+u+v+w+S 6 ",
"x+y+z+'+)+O.d+d+d+A+B+C+D+E+F+|+G+H+I+J+K+L+M+N+O+P+Q+R+S+T+U+V+",
"W+X+'+'+)+Y+d+d+Z+`+ @.@+@@@#@#@J+$@%@&@*@=@-@;@>@,@'@)@!@~@{@]@",
"^@/@'+'+(@d+_@:@<@[@}@|@1@2@3@4@3@5@6@7@8@9@0@a@b@c@d@e@f@g@h@i@",
"j@/@'+'+k@l@m@n@o@p@q@r@s@t@u@v@w@x@y@6@z@A@B@C@D@E@F@G@H@I@J@K@",
"L@M@'+'+)+N@O@P@Q@R@S@T@U@V@W@W@X@Y@Z@`@ #.#+#@###$#%#&#*#=#-#;#",
">#,#'+'+)+'#)#!#~#{#]#^#/#(#_#:#<#[#}#|#1#2#3#4#5#6#7#8#9#0#J@;#",
"a#b#'+'+)+c#d#e#f#g#h#i#j#k#l#m#n#o#p#q#r#s#t#u#v#w#x#y#z#A#B#;#",
"C#D#/@'+)+E#F#G#H#I#J#K#L#M#N#O#P#Q#R#@#S#T#U#V#W#X#Y#z#z#Z#I.h.",
"`#D# $'+)+.$+$@$#$$$%$&$*$=$-$;$>$,$'$)$!$~${$]$^$/$($z#_$:$<$[$",
"}$|$D#X+)+.$1$2$3$4$5$6$7$8$9$0$a$b$c$d$e$f$g$h$i$j$($z#_$k$l$]@",
"m$n$D#o$p$.$1$q$r$s$t$u$v$w$x$y$z$A$B$C$D$E$F$G$H$I$J$K$L$M$;+N$",
"O$P$|$D#o$Q$1$q$r$R$S$T$L#U$V$W$X$Y$Z$`$ %E$.%+%@%#%J$A#$%%%;#6 ",
"6 &%*%D#D#D#=%-%r$R$S$K#;%>%N#,%'%)%!%~%{%]%^%/%(%_%A#:%<%[%J.. ",
"t s }%|%D#D#D#D#1%2%3%K#;%4%5%6%7%8%9%0%a%b%c%d%e%f%g%J@<$h.6 . ",
". 6 h%i%j%D#D#D#D#D#D#D#k%l%m%n%o%p%q%r%s%t%u%h$v%w%x%y%z%A%t . ",
". . N$B%C%D%D#D#D#D#D#D#D#D#E%F%G%H%I%J%K%L%M%N%O%P%M$Q%s t . . ",
". . t ]@l$R%S%T%D#D#D#D#D#D#U%V%W%X%Y%Z%`% &.&+&@&#&$&%&T . . . ",
". . . 6 5 &&*&=&-&;&D#D#D#D#D#>&,&'&)&!&~&{&]&^&M$/&;#V+. . . . ",
". . . . 6 O$(&_&:&<&[&}&|&1&2&3&4&5&6&7&8&9&0&{@l$K@V+. . . . . ",
". . . . . t J.S U+{@a&b&R%c&d&e&f&g&9&h&<%_&i&j&s T . . . . . . ",
". . . . . . t V+5 k&&&l&{@I.M$#&M$I.y%%%m&n&i@o&t . . . . . . . ",
". . . . . . . . t 6 J.p&;#h%;+q&r&n&k&%&5 V+t . . . . . . . . . "};
