/* XPM */
static char * stock_inbox_xpm[] = {
"48 48 491 2",
"  	c None",
". 	c #000000",
"+ 	c #B5CADD",
"@ 	c #BFD1E1",
"# 	c #C3D4E3",
"$ 	c #C7D7E5",
"% 	c #B0C6DA",
"& 	c #6B94BB",
"* 	c #131E29",
"= 	c #739ABF",
"- 	c #7EA2C4",
"; 	c #9AB6D0",
"> 	c #E4EBF2",
", 	c #DDE6EF",
"' 	c #8CACCA",
") 	c #5C8AB4",
"! 	c #090F15",
"~ 	c #B1C7DB",
"{ 	c #D0DDEA",
"] 	c #D9E3ED",
"^ 	c #88A9C8",
"/ 	c #4D7CA7",
"( 	c #030405",
"_ 	c #41688D",
": 	c #32506C",
"< 	c #C4D5E4",
"[ 	c #A5BED5",
"} 	c #456F97",
"| 	c #3B5F81",
"1 	c #C8D8E6",
"2 	c #9CB8D2",
"3 	c #395B7B",
"4 	c #C6D6E4",
"5 	c #BBCEDF",
"6 	c #3D6183",
"7 	c #B6CBDE",
"8 	c #426A90",
"9 	c #0B0B0B",
"0 	c #4B3A2A",
"a 	c #0C0C0B",
"b 	c #0C0C0C",
"c 	c #151515",
"d 	c #898989",
"e 	c #9A9A9A",
"f 	c #AEAEAE",
"g 	c #BEBEBE",
"h 	c #DDDDDD",
"i 	c #EDEDED",
"j 	c #F9F9F9",
"k 	c #A4A4A4",
"l 	c #141414",
"m 	c #1E1E1E",
"n 	c #212121",
"o 	c #2D2D2D",
"p 	c #3B3B3B",
"q 	c #5F5F5F",
"r 	c #696969",
"s 	c #757575",
"t 	c #808080",
"u 	c #989898",
"v 	c #A2A2A2",
"w 	c #B6B6B6",
"x 	c #C2C2C2",
"y 	c #D9D9D9",
"z 	c #E8E8E8",
"A 	c #ADC4D9",
"B 	c #F8F8F8",
"C 	c #F7F7F7",
"D 	c #F6F6F6",
"E 	c #F4F4F4",
"F 	c #919191",
"G 	c #585858",
"H 	c #FEFEFE",
"I 	c #FFFFFF",
"J 	c #FCFCFC",
"K 	c #FBFBFB",
"L 	c #FAFAFA",
"M 	c #608DB6",
"N 	c #F3F3F3",
"O 	c #F1F1F1",
"P 	c #F0F0F0",
"Q 	c #EEEEEE",
"R 	c #ECECEC",
"S 	c #EBEBEB",
"T 	c #333333",
"U 	c #E1E1E1",
"V 	c #F5F5F5",
"W 	c #F2F2F2",
"X 	c #EFEFEF",
"Y 	c #EAEAEA",
"Z 	c #E7E7E7",
"` 	c #E4E4E4",
" .	c #E5E5E5",
"..	c #969696",
"+.	c #454545",
"@.	c #464646",
"#.	c #DFDFDF",
"$.	c #FDFDFD",
"%.	c #E9E9E9",
"&.	c #E3E3E3",
"*.	c #E0E0E0",
"=.	c #DBDBDB",
"-.	c #878787",
";.	c #414141",
">.	c #4C4C4C",
",.	c #494949",
"'.	c #373737",
").	c #615F5C",
"!.	c #737272",
"~.	c #9D9D9D",
"{.	c #ADADAD",
"].	c #C9C9C9",
"^.	c #E6E6E6",
"/.	c #DEDEDE",
"(.	c #6E6E6E",
"_.	c #6C6C6C",
":.	c #7E7E7E",
"<.	c #6A6A6A",
"[.	c #393939",
"}.	c #C3C0BD",
"|.	c #DBD7D4",
"1.	c #BB9570",
"2.	c #5E5246",
"3.	c #E2E2E2",
"4.	c #B4B4B4",
"5.	c #8E8E8E",
"6.	c #848484",
"7.	c #A3A3A3",
"8.	c #D2D2D2",
"9.	c #DADADA",
"0.	c #D8D8D8",
"a.	c #D1D1D1",
"b.	c #5E5E5E",
"c.	c #252525",
"d.	c #606060",
"e.	c #8A8A8A",
"f.	c #999999",
"g.	c #101010",
"h.	c #CAC5C0",
"i.	c #DCD8D5",
"j.	c #E7B88A",
"k.	c #CD8843",
"l.	c #B97A3C",
"m.	c #463728",
"n.	c #D4D4D4",
"o.	c #B9B9B9",
"p.	c #9B9B9B",
"q.	c #747474",
"r.	c #7F7F7F",
"s.	c #A9A9A9",
"t.	c #D5D5D5",
"u.	c #D3D3D3",
"v.	c #515151",
"w.	c #5B5B5B",
"x.	c #959595",
"y.	c #242424",
"z.	c #D8D5D2",
"A.	c #D18B45",
"B.	c #CE8944",
"C.	c #CB8743",
"D.	c #BA7B3D",
"E.	c #382715",
"F.	c #B5B5B5",
"G.	c #8B8B8B",
"H.	c #656565",
"I.	c #707070",
"J.	c #B7B7B7",
"K.	c #555555",
"L.	c #434343",
"M.	c #6D6D6D",
"N.	c #B1B1B1",
"O.	c #262626",
"P.	c #C5BFB9",
"Q.	c #EEEBE7",
"R.	c #D78F47",
"S.	c #D48D46",
"T.	c #C88542",
"U.	c #C38140",
"V.	c #4F351A",
"W.	c #B6B0AA",
"X.	c #C7C7C7",
"Y.	c #AFAFAF",
"Z.	c #868686",
"`.	c #666666",
" +	c #828282",
".+	c #C6C6C6",
"++	c #4E4E4E",
"@+	c #5C5C5C",
"#+	c #8D8D8D",
"$+	c #9F9F9F",
"%+	c #BCBCBC",
"&+	c #AAAAAA",
"*+	c #444343",
"=+	c #121212",
"-+	c #3E2914",
";+	c #DBCBBB",
">+	c #9A8F84",
",+	c #D58E46",
"'+	c #D28C45",
")+	c #CF8944",
"!+	c #CC8743",
"~+	c #C98542",
"{+	c #C68341",
"]+	c #C2803F",
"^+	c #85582B",
"/+	c #6E6861",
"(+	c #CECECE",
"_+	c #A5A5A5",
":+	c #7B7B7B",
"<+	c #535353",
"[+	c #737373",
"}+	c #A1A1A1",
"|+	c #979797",
"1+	c #A7A7A7",
"2+	c #BABABA",
"3+	c #C1C1C1",
"4+	c #BBBBBB",
"5+	c #4E4C4B",
"6+	c #5D564F",
"7+	c #C0B6AC",
"8+	c #614120",
"9+	c #A87C51",
"0+	c #CCB39A",
"a+	c #BFB8B1",
"b+	c #8F7A65",
"c+	c #7C5127",
"d+	c #C98642",
"e+	c #C68441",
"f+	c #C38240",
"g+	c #BE7E3D",
"h+	c #A66F36",
"i+	c #494038",
"j+	c #C8C8C8",
"k+	c #9C9C9C",
"l+	c #7D7D7D",
"m+	c #9E9E9E",
"n+	c #C0C0C0",
"o+	c #565554",
"p+	c #483827",
"q+	c #754E27",
"r+	c #DCCFC4",
"s+	c #463322",
"t+	c #996633",
"u+	c #C9AE93",
"v+	c #BAAA9B",
"w+	c #87592B",
"x+	c #C07F3E",
"y+	c #B97B3C",
"z+	c #AA7037",
"A+	c #3E3125",
"B+	c #E2E0DE",
"C+	c #D0D0D0",
"D+	c #DCDCDC",
"E+	c #D6D6D6",
"F+	c #CBCBCB",
"G+	c #CCCCCC",
"H+	c #CFCFCF",
"I+	c #BDBDBD",
"J+	c #565655",
"K+	c #44382C",
"L+	c #6C4723",
"M+	c #AC9277",
"N+	c #40301E",
"O+	c #AB8157",
"P+	c #BFAE9D",
"Q+	c #805428",
"R+	c #554534",
"S+	c #B1ADAA",
"T+	c #CDCDCD",
"U+	c #CACACA",
"V+	c #B8B8B8",
"W+	c #60605F",
"X+	c #3A3129",
"Y+	c #624120",
"Z+	c #987754",
"`+	c #8B7969",
" @	c #A4784B",
".@	c #BDB2A6",
"+@	c #413225",
"@@	c #75716D",
"#@	c #C5C5C5",
"$@	c #C4C4C4",
"%@	c #616160",
"&@	c #37312A",
"*@	c #5C3D1F",
"=@	c #80552A",
"-@	c #B29980",
";@	c #33210F",
">@	c #D1C2B2",
",@	c #87837D",
"'@	c #A8A8A8",
")@	c #C3C3C3",
"!@	c #53514E",
"~@	c #383129",
"{@	c #624426",
"]@	c #7F542A",
"^@	c #B0977E",
"/@	c #DACBBB",
"(@	c #CEC9C3",
"_@	c #B1AFAC",
":@	c #B2B2B2",
"<@	c #BFBFBF",
"[@	c #A6A6A5",
"}@	c #9C9B9A",
"|@	c #949494",
"1@	c #6E6C6A",
"2@	c #332F2C",
"3@	c #2F2A24",
"4@	c #21170C",
"5@	c #3A2713",
"6@	c #654321",
"7@	c #7F552A",
"8@	c #99734D",
"9@	c #81776B",
"0@	c #3C2713",
"a@	c #D9C8B6",
"b@	c #C5C0BA",
"c@	c #B0ADAB",
"d@	c #8F8F8F",
"e@	c #ACACAC",
"f@	c #B0B0B0",
"g@	c #909090",
"h@	c #3D3A38",
"i@	c #25201C",
"j@	c #312A23",
"k@	c #342B21",
"l@	c #534436",
"m@	c #63503D",
"n@	c #6A4E34",
"o@	c #6E4823",
"p@	c #774F27",
"q@	c #84582B",
"r@	c #8D5D2E",
"s@	c #BCA48C",
"t@	c #372411",
"u@	c #D7C4B1",
"v@	c #CCC8C5",
"w@	c #B6B5B3",
"x@	c #939393",
"y@	c #929291",
"z@	c #969695",
"A@	c #848382",
"B@	c #706D6B",
"C@	c #52504D",
"D@	c #292420",
"E@	c #211A13",
"F@	c #2F251C",
"G@	c #594635",
"H@	c #81674D",
"I@	c #85694F",
"J@	c #907356",
"K@	c #957759",
"L@	c #9A7A5C",
"M@	c #AC8D6D",
"N@	c #987A5E",
"O@	c #9B7654",
"P@	c #976A3E",
"Q@	c #906030",
"R@	c #C5B09B",
"S@	c #463421",
"T@	c #C1A386",
"U@	c #C4C0B9",
"V@	c #A6A4A0",
"W@	c #838383",
"X@	c #636160",
"Y@	c #3B3936",
"Z@	c #302D29",
"`@	c #2D2620",
" #	c #292118",
".#	c #453728",
"+#	c #7C624A",
"@#	c #886C51",
"##	c #8A6E53",
"$#	c #927557",
"%#	c #937558",
"&#	c #967859",
"*#	c #9D7E5E",
"=#	c #A48363",
"-#	c #AA8866",
";#	c #B5916D",
">#	c #C19B74",
",#	c #CFA67C",
"'#	c #A88561",
")#	c #A9825C",
"!#	c #B59372",
"~#	c #968D82",
"{#	c #926D48",
"]#	c #B8B4B0",
"^#	c #16100A",
"/#	c #3D3124",
"(#	c #644F3B",
"_#	c #7D644B",
":#	c #866C50",
"<#	c #8F7355",
"[#	c #9A7B5C",
"}#	c #9E7E5E",
"|#	c #A07F5F",
"1#	c #A28261",
"2#	c #A68463",
"3#	c #A98765",
"4#	c #B08D69",
"5#	c #B5906C",
"6#	c #BA956F",
"7#	c #C29B74",
"8#	c #CAA179",
"9#	c #D0A67D",
"0#	c #D6AB80",
"a#	c #D9B38C",
"b#	c #D1BDAA",
"c#	c #D0BCA8",
"d#	c #302317",
"e#	c #C0A285",
"f#	c #543D26",
"g#	c #9E7E5C",
"h#	c #96785A",
"i#	c #9F7F5E",
"j#	c #A68564",
"k#	c #AF8B68",
"l#	c #B7926D",
"m#	c #BB946F",
"n#	c #BD9771",
"o#	c #BF9973",
"p#	c #C29A74",
"q#	c #C39B75",
"r#	c #C8A078",
"s#	c #CBA27A",
"t#	c #CEA57C",
"u#	c #D1A77E",
"v#	c #D5AA7F",
"w#	c #F5DBC1",
"x#	c #F8DABC",
"y#	c #805F40",
"z#	c #5C4936",
"A#	c #87735E",
"B#	c #A07C57",
"C#	c #BE9671",
"D#	c #CCA37A",
"E#	c #D2A87E",
"F#	c #D4A97E",
"G#	c #D3A97F",
"H#	c #D4AA7F",
"I#	c #D7AC80",
"J#	c #D9AD82",
"K#	c #DAAE83",
"L#	c #F6DCC2",
"M#	c #F7D9BB",
"N#	c #816040",
"O#	c #533E29",
"P#	c #5A4229",
"Q#	c #DBAF83",
"R#	c #DEB285",
"S#	c #DFB386",
"T#	c #E0B386",
"U#	c #DFB385",
"V#	c #DEB185",
"W#	c #DCB083",
"X#	c #DCB084",
"Y#	c #DDB185",
"Z#	c #F9DFC5",
"`#	c #826141",
" $	c #6B5239",
".$	c #EBBC8B",
"+$	c #E8B98A",
"@$	c #E6B789",
"#$	c #E3B588",
"$$	c #E2B487",
"%$	c #DFB286",
"&$	c #BD9D7E",
"*$	c #664E37",
"=$	c #B98C5F",
"-$	c #EABB8C",
";$	c #E7B98B",
">$	c #E5B789",
",$	c #E2B588",
"'$	c #644A30",
")$	c #E8BA8B",
"!$	c #E6B88A",
"~$	c #E3B688",
"{$	c #E1B487",
"]$	c #5B4530",
"^$	c #E4B689",
"/$	c #F9DDC1",
"($	c #CBB39C",
"_$	c #695541",
":$	c #8B725A",
"<$	c #F9E3CB",
"[$	c #B99775",
"}$	c #B3A99E",
"|$	c #917458",
"1$	c #595046",
"2$	c #35271A",
"                                                                                                ",
"                                        . . . . . .                                             ",
"                                      . + @ # $ % & * .                                         ",
"                                      . = - ; $ > , ' ) !                                       ",
"                                        . . . = ~ { ] ^ / (                                     ",
"                                              . = + # $ _ : .                                   ",
"                                                . < [ @ } | .                                   ",
"                                                . 1 2 @ } 3 .                                   ",
"                                          . . . . 4 2 5 } 6 . . . .                             ",
"                                            . = 2 5 2 7 } 8 } : .                               ",
"                                              . = 2 2 7 } } : .   . . . . . .                   ",
"                                      9 0 a b c . = 2 ~ } : . d e f g h i j k                   ",
"                    l m n o p q r s t u v w x y z . = A : . j B C B C C D E F .                 ",
"                    G H I I I I I I I I H H J K L L . M . N O P Q i R S R f q .                 ",
"                    T U K I I I H H J K L B C D V N W . X i R Y z Z `  ...+.@..                 ",
"                    b d x #.j $.J L j C D E W W O X Q R S %.Z  .&.*.=.-.;.>.,..                 ",
"                  '.).!.v ~.{.].i j C N O P Q Q R S Y ^. .` U *./.y (.l _.:.<..                 ",
"              [.}.|.1.2.L 3.4.5.6.7.8.` X i S z Z ` &.U #.h 9.0.a.b.c.d.e.f.-.g.                ",
"          [.h.i.j.k.l.m.J j N n.o.p.q.r.s.8.z Y ` #.h =.y t.u.g v.p w.r.v s.x.y.                ",
"      [.z.i.j.A.B.C.D.E.H j V P Y t.F.G.H.I.e.J.S ^.=.n.u.8.g K.L.b.M.x.s.N.~.O.                ",
"  . P.Q.R.S.A.B.C.T.U.V.W.j B O X z #.X.Y.Z.I.`. +e .+t.a.J.++@+b.t #+$+w %+&+*+=+.             ",
"  -+;+>+,+'+)+!+~+{+]+^+/+B C P Q R z *.(+_+Y.x ~.d :.:+e.<+[+F }+u |+1+2+3+4+5+6+7+.           ",
"  8+9+0+a+b+c+d+e+f+g+h+i+L D Q R S %. ./.4+t.z n.j+J.k+Z.l+m+Y.g j+4.~.J.x n+o+p+q+r+s+        ",
"  8+9+t+t+u+;+v+w+x+y+z+A+B+O Q S %.Z ` C+C+R &.D+E+8.].g 2+4+X.F+G+H+I+p.Y.%+J+K+L+M+N+        ",
"  8+9+t+t+t+t+O+;+P+Q+h+R+S+/.U ` ^. ./.T+Z ^./.=.0.E+u.T+j+j+G+F+X..+U+V+f.u W+X+Y+Z+`+        ",
"  8+9+t+t+t+t+t+t+ @;+.@+@@@n+#@j+8.0.T+=.S #.=.0.E+n.8.C+H+G+F+j+$@x 3+$@4+e.%@&@*@=@-@;@      ",
"  8+9+t+t+t+t+t+t+t+t+t+>@,@U+'@_+{.N.J.0.n.u.u.C+C+T+F+U+].U+X.)@I+2+4._+$+v !@~@{@]@^@N+      ",
"  8+9+t+t+t+t+t+t+t+t+t+t+t+/@(@_@|+Z.m+&+:@V+<@3+<@3+3+<@3+g 4+J.[@}@|@1@2@3@4@5@6@7@8@9@      ",
"  0@9+t+t+t+t+t+t+t+t+t+t+t+t+t+a@b@c@m+d@F u 7.e@f@4.{.&+e@'@f.g@h@i@j@k@l@m@n@o@p@q@r@s@t@    ",
"    -+t+t+t+t+t+t+t+t+t+t+t+t+t+t+t+u@v@w@x@-.e.5.y@z@A@B@C@D@E@F@G@H@I@J@K@L@M@N@O@P@Q@R@S@    ",
"      . -+t+t+t+t+t+t+t+t+t+t+t+t+t+t+t+T@U@V@W@X@Y@Z@`@ #.#+#@###$#%#&#*#=#-#;#>#,#'#)#!#~#{#  ",
"          . -+t+t+t+t+t+t+t+t+t+t+t+t+t+t+t+T@]#^#/#(#_#:#<#[#}#|#1#2#3#4#5#6#7#8#9#0#a#b#c#d#  ",
"              . -+t+t+t+t+t+t+t+t+t+t+t+t+t+t+e#f#g#h#i#j#k#l#m#n#o#p#q#r#s#t#9#u#v#w#x#y#z#    ",
"                  . -+t+t+t+t+t+t+t+t+t+t+t+t+O+A#B#C#7#r#D#9#E#E#F#G#H#I#J#J#K#L#M#N#O#.       ",
"                      . -+t+t+t+t+t+t+t+t+t+t+t+T@P#Q#R#S#S#T#U#V#W#X#Y#Y#Y#Z#Z#`#O#.           ",
"                          . -+t+t+t+t+t+t+t+t+t+T@ $.$+$j.@$#$$$%$Y#Y#Y#Z#Z#`#O#.               ",
"                              . -+t+t+t+t+t+t+t+&$*$=$-$;$>$,$T#Y#Y#Z#Z#`#O#.                   ",
"                                  . -+t+t+t+t+t+t+T@'$)$!$~${$R#Z#Z#`#O#.                       ",
"                                      . -+t+t+t+t+T@]$j.^$$$Z#/$`#O#.                           ",
"                                          . -+t+t+($_$:$<$/$`#O#.                               ",
"                                              . -+[$T@}$|$O#.                                   ",
"                                                  . 1$2$.                                       ",
"                                                                                                ",
"                                                                                                ",
"                                                                                                ",
"                                                                                                ",
"                                                                                                ",
"                                                                                                "};
