/* XPM */
static char * stock_new_text_xpm[] = {
"48 52 441 2",
"  	c None",
". 	c #000000",
"+ 	c #232323",
"@ 	c #1F1F1F",
"# 	c #DADADA",
"$ 	c #FFFFFF",
"% 	c #F6F6F6",
"& 	c #CFCFCF",
"* 	c #707070",
"= 	c #FEFEFE",
"- 	c #FBFBFB",
"; 	c #EDEDED",
"> 	c #C0C0C0",
", 	c #F7F7F7",
"' 	c #D7D7D7",
") 	c #F1F1F1",
"! 	c #B7B7B7",
"~ 	c #D2D2D2",
"{ 	c #AEAEAE",
"] 	c #070707",
"^ 	c #4E4E4E",
"/ 	c #535353",
"( 	c #373737",
"_ 	c #2E2E2E",
": 	c #818181",
"< 	c #343434",
"[ 	c #FDFDFD",
"} 	c #B8B8B8",
"| 	c #DCDCDC",
"1 	c #A4A4A3",
"2 	c #0E0E0E",
"3 	c #323232",
"4 	c #161616",
"5 	c #676767",
"6 	c #1E1E1E",
"7 	c #6B6B6B",
"8 	c #9F9F9F",
"9 	c #4D4D4D",
"0 	c #3F3F3F",
"a 	c #464646",
"b 	c #2F2F2F",
"c 	c #313131",
"d 	c #717171",
"e 	c #F5F5F4",
"f 	c #B5B5B5",
"g 	c #F9F9F9",
"h 	c #FCFCFC",
"i 	c #CBCBCB",
"j 	c #A5A5A5",
"k 	c #212121",
"l 	c #252525",
"m 	c #575757",
"n 	c #636363",
"o 	c #5C5C5C",
"p 	c #333333",
"q 	c #525252",
"r 	c #2C2C2C",
"s 	c #565656",
"t 	c #9E9E9E",
"u 	c #FDFDFC",
"v 	c #F4F4F4",
"w 	c #ACACAC",
"x 	c #ECECEC",
"y 	c #C3C3C3",
"z 	c #C2C2C2",
"A 	c #C9C9C8",
"B 	c #A8A8A8",
"C 	c #FCFCFB",
"D 	c #F4F4F3",
"E 	c #ABABAB",
"F 	c #515151",
"G 	c #474747",
"H 	c #464645",
"I 	c #5D5D5C",
"J 	c #A9A9A9",
"K 	c #FAFAFA",
"L 	c #F2F2F2",
"M 	c #F3F3F3",
"N 	c #AAAAAA",
"O 	c #A0A09F",
"P 	c #8A8A8A",
"Q 	c #7A7A7A",
"R 	c #6C6C6C",
"S 	c #454545",
"T 	c #808080",
"U 	c #7F7F7F",
"V 	c #757575",
"W 	c #FAFAF9",
"X 	c #E7E7E7",
"Y 	c #C6C6C5",
"Z 	c #BABAB9",
"` 	c #737EA8",
" .	c #7280AA",
"..	c #7281AD",
"+.	c #7482AE",
"@.	c #7986AE",
"#.	c #848DAE",
"$.	c #7A88B1",
"%.	c #7585B1",
"&.	c #7684B0",
"*.	c #7584B1",
"=.	c #7483B0",
"-.	c #7483AF",
";.	c #F8F8F7",
">.	c #F7F7F6",
",.	c #F6F6F5",
"'.	c #F5F5F5",
").	c #EDEDEB",
"!.	c #7683AF",
"~.	c #7A88B3",
"{.	c #7684B2",
"].	c #7886B2",
"^.	c #9997A2",
"/.	c #A5A0A4",
"(.	c #A4A0A8",
"_.	c #7989B6",
":.	c #7887B5",
"<.	c #7787B5",
"[.	c #7787B2",
"}.	c #7686B4",
"|.	c #7F7F7E",
"1.	c #555555",
"2.	c #B3B3B3",
"3.	c #343433",
"4.	c #3E3E3D",
"5.	c #4B4B4B",
"6.	c #B1B1B1",
"7.	c #545454",
"8.	c #2B2B2B",
"9.	c #6E6E6E",
"0.	c #9BA4C8",
"a.	c #9CA6CA",
"b.	c #7F8DB9",
"c.	c #848EB4",
"d.	c #9C989C",
"e.	c #A6A1A3",
"f.	c #ABA4A6",
"g.	c #828FB7",
"h.	c #7B8ABA",
"i.	c #7A8ABA",
"j.	c #7A8AB8",
"k.	c #8A98C1",
"l.	c #7E7E7E",
"m.	c #FBFBFA",
"n.	c #F9F9F8",
"o.	c #F3F3F2",
"p.	c #B6BDDC",
"q.	c #D9DCEB",
"r.	c #9FAACE",
"s.	c #A3AAC6",
"t.	c #9E989C",
"u.	c #A8A1A3",
"v.	c #AEA7A7",
"w.	c #8C95B6",
"x.	c #7C8EBE",
"y.	c #7B8EBE",
"z.	c #7B8DBD",
"A.	c #7E8FBD",
"B.	c #9C9C9C",
"C.	c #4B6983",
"D.	c #9A9A9A",
"E.	c #F2F2F1",
"F.	c #C7CCE5",
"G.	c #E7E7EF",
"H.	c #E7E7EE",
"I.	c #C4C5D2",
"J.	c #9E999C",
"K.	c #A9A2A3",
"L.	c #AFA7A7",
"M.	c #979CB4",
"N.	c #7F91C1",
"O.	c #7E90C1",
"P.	c #7D8FC0",
"Q.	c #7E8FC0",
"R.	c #F8F8F8",
"S.	c #F1F1F0",
"T.	c #B2B1BF",
"U.	c #CCCFE0",
"V.	c #CFD4E7",
"W.	c #C3C5D2",
"X.	c #A09A9D",
"Y.	c #ADA6A8",
"Z.	c #B0A8A7",
"`.	c #B0ADB7",
" +	c #889AC8",
".+	c #8093C4",
"++	c #8092C3",
"@+	c #7D7D7D",
"#+	c #989898",
"$+	c #C8C8C7",
"%+	c #969695",
"&+	c #555554",
"*+	c #393939",
"=+	c #888888",
"-+	c #6D6D6C",
";+	c #F0F0F0",
">+	c #C5BEBF",
",+	c #BEB8B9",
"'+	c #B6B4BB",
")+	c #ABABB6",
"!+	c #A19B9F",
"~+	c #ACA5A6",
"{+	c #ABA3A2",
"]+	c #A6A2A9",
"^+	c #8398C7",
"/+	c #8195C6",
"(+	c #8194C5",
"_+	c #F2F2F0",
":+	c #F0F0EF",
"<+	c #EFEFEE",
"[+	c #EFEFED",
"}+	c #C0B9B8",
"|+	c #C3BDBD",
"1+	c #C7C0C0",
"2+	c #B6B0B0",
"3+	c #A19B9C",
"4+	c #ADA4A3",
"5+	c #AFA6A5",
"6+	c #A4A9C0",
"7+	c #92A0C6",
"8+	c #8398C6",
"9+	c #7C7C7C",
"0+	c #969696",
"a+	c #505050",
"b+	c #585858",
"c+	c #363636",
"d+	c #B2B2B0",
"e+	c #949494",
"f+	c #4F4F4F",
"g+	c #8D8D8D",
"h+	c #444443",
"i+	c #3A3A3A",
"j+	c #888887",
"k+	c #EEEEED",
"l+	c #EEEEEC",
"m+	c #C2BCBC",
"n+	c #C2BCBA",
"o+	c #C8C1C1",
"p+	c #B5AFAF",
"q+	c #9B9698",
"r+	c #AEA6A5",
"s+	c #ABA4A2",
"t+	c #B5ADAB",
"u+	c #B9B2B3",
"v+	c #BFBABE",
"w+	c #B4B3BE",
"x+	c #A3A0AB",
"y+	c #7B7B7B",
"z+	c #F1F1EF",
"A+	c #EEEEEE",
"B+	c #EDEDEC",
"C+	c #C1BBBA",
"D+	c #BAB3B1",
"E+	c #C2BBB8",
"F+	c #B3ACA9",
"G+	c #9B9697",
"H+	c #AAA4A5",
"I+	c #ADA5A5",
"J+	c #B2AAA8",
"K+	c #C2BBBB",
"L+	c #C0BABC",
"M+	c #B0AAAA",
"N+	c #948E8E",
"O+	c #616160",
"P+	c #404040",
"Q+	c #B2B2B1",
"R+	c #606060",
"S+	c #40403F",
"T+	c #B0B0AF",
"U+	c #EFEFEF",
"V+	c #ECECEB",
"W+	c #BFB8B7",
"X+	c #C0BBBA",
"Y+	c #C3BDBC",
"Z+	c #B8B2B0",
"`+	c #979193",
" @	c #A09A99",
".@	c #A19A98",
"+@	c #ACA4A1",
"@@	c #B7B0AF",
"#@	c #BFBABC",
"$@	c #B2ADAF",
"%@	c #928C8D",
"&@	c #7B7B7A",
"*@	c #BEB9B8",
"=@	c #BFBAB9",
"-@	c #B1AAA8",
";@	c #958F90",
">@	c #9C9696",
",@	c #9F9795",
"'@	c #A29995",
")@	c #B5B0AF",
"!@	c #ACA7A8",
"~@	c #938E8F",
"{@	c #787878",
"]@	c #F0F0EE",
"^@	c #848483",
"/@	c #767676",
"(@	c #3C3C3C",
"_@	c #666665",
":@	c #323231",
"<@	c #EBEBEA",
"[@	c #5D5D5D",
"}@	c #6F6D6D",
"|@	c #6E6E6D",
"1@	c #6E6C6C",
"2@	c #6C6A6A",
"3@	c #656464",
"4@	c #676665",
"5@	c #696867",
"6@	c #6A6867",
"7@	c #6B6968",
"8@	c #6C6B6A",
"9@	c #6A696A",
"0@	c #656465",
"a@	c #656565",
"b@	c #ECECEA",
"c@	c #EAEAE9",
"d@	c #EAEAE8",
"e@	c #60605F",
"f@	c #3E3E3E",
"g@	c #838382",
"h@	c #919191",
"i@	c #5E5E5E",
"j@	c #30302F",
"k@	c #D3D3D3",
"l@	c #5F5F5F",
"m@	c #E9E9E8",
"n@	c #E9E9E7",
"o@	c #EBEBE9",
"p@	c #A1A1A0",
"q@	c #626262",
"r@	c #767675",
"s@	c #3D3D3C",
"t@	c #A0A09E",
"u@	c #616161",
"v@	c #818180",
"w@	c #5A5A5A",
"x@	c #414141",
"y@	c #E8E8E7",
"z@	c #E8E8E6",
"A@	c #353535",
"B@	c #383838",
"C@	c #3B3B3B",
"D@	c #6C6C6B",
"E@	c #181818",
"F@	c #202020",
"G@	c #797978",
"H@	c #6F6F6F",
"I@	c #8C8C8B",
"J@	c #303030",
"K@	c #D3D3D2",
"L@	c #777777",
"M@	c #C1C1C0",
"N@	c #686868",
"O@	c #AAAAA9",
"P@	c #E7E7E6",
"Q@	c #E6E6E4",
"R@	c #434342",
"S@	c #5E5E5D",
"T@	c #2E2E2D",
"U@	c #2D2D2D",
"V@	c #2A2A2A",
"W@	c #1B1B1A",
"X@	c #1D1D1D",
"Y@	c #E5E5E4",
"Z@	c #757574",
"`@	c #BDBDBD",
" #	c #4A4A49",
".#	c #8E8E8D",
"+#	c #5B5B5A",
"@#	c #BDBDBB",
"##	c #737372",
"$#	c #BCBCBA",
"%#	c #D1D1CF",
"&#	c #E7E7E5",
"*#	c #E5E5E3",
"=#	c #959594",
"-#	c #949493",
";#	c #5F5F5E",
">#	c #70706F",
",#	c #E4E4E2",
"'#	c #3C3C3B",
")#	c #939392",
"!#	c #737373",
"~#	c #7A7A79",
"{#	c #727271",
"]#	c #3A3A39",
"^#	c #626261",
"/#	c #696969",
"(#	c #E4E4E3",
"_#	c #353534",
":#	c #586F86",
"<#	c #526A82",
"[#	c #506881",
"}#	c #597087",
"|#	c #718497",
"1#	c #BDC4CA",
"2#	c #5C5C5B",
"3#	c #242424",
"4#	c #424241",
"5#	c #CDCDCB",
"6#	c #E3E3E1",
"7#	c #E6E6E5",
"8#	c #4C4C4B",
"9#	c #545453",
"0#	c #797977",
"a#	c #50504F",
"b#	c #C6C6C4",
"c#	c #9B9B9A",
"d#	c #313130",
"e#	c #3B3B3A",
"f#	c #9A9A99",
"g#	c #7E7E7C",
"h#	c #585857",
"i#	c #A6A6A5",
"j#	c #E2E2E0",
"k#	c #E3E3E2",
"l#	c #565655",
"m#	c #717170",
"n#	c #787877",
"o#	c #868685",
"p#	c #777776",
"q#	c #C4C4C2",
"r#	c #878786",
"s#	c #2F2F2E",
"t#	c #696968",
"u#	c #CCCCCB",
"v#	c #747474",
"w#	c #A5A5A4",
"x#	c #E1E1DF",
"y#	c #858584",
"z#	c #B8B8B7",
"A#	c #CCCCCA",
"B#	c #484847",
"C#	c #8A8A89",
"D#	c #595958",
"E#	c #B8B8B6",
"F#	c #CBCBCA",
"G#	c #535352",
"H#	c #8C8C8C",
"  . . . . . . . . . . . . . . . . . . . . . . . . . . . . . . . . . . + @                       ",
". # $ $ $ $ $ $ $ $ $ $ $ $ $ $ $ $ $ $ $ $ $ $ $ $ $ $ $ $ $ $ $ $ $ % & * .                   ",
". $ $ $ $ $ $ $ $ $ $ $ $ $ $ $ $ $ $ $ $ $ $ = = = = = = = = = = = = - % ; > .                 ",
". $ $ $ $ $ $ $ $ $ $ $ $ $ $ $ $ $ $ $ $ = = = = = = = = = = = = = = , ' $ ) ! .               ",
". $ $ $ $ $ $ $ $ $ $ $ $ $ $ $ $ $ $ = = = = = = = = = = = = = = = = , ~ $ $ ; { ]             ",
". $ $ $ $ $ $ ^ $ / $ $ ( $ $ / $ = = _ = = = : = < = = = = = = = [ [ % } $ [ $ | 1 2           ",
". $ $ $ $ $ $ 3 $ 4 ^ / / 5 $ 6 7 = 8 9 0 9 a b = c = d 0 [ [ [ [ [ [ e f $ g h $ i j .         ",
". $ $ $ $ $ $ k 3 l m $ / a = 9 n = = c 8 = o p = q o r s [ t u h h h v w x y i } z A B .       ",
". $ $ $ $ $ $ $ $ $ $ = = = = = = = = = = = [ [ [ [ [ [ u h h h h h C D E F G H a a I J .       ",
". $ $ $ $ $ $ $ $ = = = = = = = = = = [ [ [ [ [ u h h h h h h C - - K L M > N O P Q R S .       ",
". $ $ $ $ $ $ 5 T T T T T T T U U U U U V h h h h h h C - - - - K W W g - , , X Y A Z Q .       ",
". $ $ $ $ = = T `  ...+.@.#.$.%.&.*.=.-.U h h h C - - - - - W g g g g , ;.>.,.'.'.'.).J .       ",
". $ $ = = = = T !.~.{.].^./.(._.:.<.[.}.|.- - - 1.2.3.4.g 5.6.7.6.p 8._ 9.'.'.e e M M 6..       ",
". $ = = [ [ [ U 0.a.b.c.d.e.f.g.h.i.j.k.l.- - m.K K g g g n.n.% % % % e e e v D M o.o.f .       ",
". $ [ [ [ [ [ U p.q.r.s.t.u.v.w.x.y.z.A.l.K K K B.n.C.C.C.% C.D.,.C.C.v C.C.C.o.o.E.E.f .       ",
". $ [ u h h h U F.G.H.I.J.K.L.M.N.O.P.Q.l.K n.n.R.R.R., ,.,.,.e v v D D o.o.L L E.S.S.f .       ",
". $ h h h h C l.T.U.V.W.X.Y.Z.`. +.+++++@+R.R.R.#+$+1.b c 2.v %+Y &+O *+=+E.-+S.S.;+;+f .       ",
". $ C C - - - l.>+,+'+)+!+~+{+]+^+/+(+(+@+;.;.>.'.'.'.e D D D M o.E.E.E.E._+;+;+:+<+[+f .       ",
". $ - - - m.m.l.}+|+1+2+3+v.4+5+6+7+^+8+9+% '.'.0+1.a+M b+c+d+e+7.f+) g+h+i+j+<+k+k+l+f .       ",
". $ m.K K K K l.m+n+o+p+q+r+s+t+u+v+w+x+y+e e v D M o.o.o.E.E.) ) S.z+:+:+A+A+k+l+B+B+f .       ",
". $ K K W W g @+C+D+E+F+G+H+I+J+K+L+M+N+y+v v o.O+P+Q+E./ h+S.R+S+T+U+k+k+k+l+B+B+x V+f .       ",
". $ W g g g g @+W+X+Y+Z+`+ @.@+@@@#@$@%@&@o.o.L L E.S.S.S.S.:+:+<+k+k+k+l+B+).).V+V+V+f .       ",
". $ g n.n.n.R.@+D+*@=@-@;@>@,@'@J+)@!@~@Q L E.E._+S.{@b+|.]@^@k+k+/@(@B+_@:@-+V+<@<@<@f .       ",
". $ R.R.R.R.>.[@}@|@1@2@3@4@5@6@7@8@9@0@a@E._+S.;+:+:+:+]@k+; B+B+B+).).V+b@<@<@<@c@d@f .       ",
". $ ;.>.>.>.% % % e e D D M M o.E.E.E.) S.z+:+:+e@T f@g@B+h@q i@|.4.j@l h+k@l@c@m@m@n@f .       ",
". $ % % % ,.,.e e M M M o.o.E.E.) S.S.z+:+:+:+U+<+l+B+B+B+x V+V+b@b@<@<@o@m@m@m@n@n@n@f .       ",
". $ ,.,.,.e v v o.o.o.o.E.) S.S.S.z+:+U+<+<+<+l+p@q@V+r@3 s@b@t@u@o@v@m@w@x@N n@y@y@z@f .       ",
". $ '.v D D o.A@o.^ E.S.S.S.S.S.B@<+C@<+<+l+B+).V+V+V+V+V+<@<@o@o@m@m@m@y@y@y@y@z@z@z@f .       ",
". $ D D o.L L _ D@6 S.c+E@:+B@c _ <+F@B+B+).).V+G@H@<@I@J@D@K@L@|@n@M@8.N@O@c+P@P@P@Q@f .       ",
". $ L E.E.E.E.R@S.P+%+S@T@U@V@A+W@l@X@o ).V+b@<@<@<@<@o@o@m@n@n@n@y@z@z@P@P@P@P@Q@Q@Y@f .       ",
". $ E.E.E.S.:+:+:+:+:+<+[+k+k+B+B+).V+b@b@<@<@<@Z@`@K@ #.#+#@###$#%###&+P@&#Q@Y@Y@Y@Y@f .       ",
". $ ) S.:+:+:+:+<+<+[+k+k+B+B+V+V+b@b@<@<@o@c@c@c@m@n@n@y@z@z@z@z@P@&#&#Q@Q@Y@Y@*#*#*#f .       ",
". $ :+:+U+<+<+R+=#k+d n -#o -#b@;#>#o@i@c@c@c@m@n@y@y@z@z@z@z@&#&#&#Q@Q@Y@*#*#*#*#*#,#f .       ",
". $ <+<+<+<+[+k+l+V+V+V+V+V+b@o@o@o@c@c@d@y@y@y@y@z@z@z@P@&#&#&#Q@Q@*#*#*#*#*#*#*#,#,#f .       ",
". $ <+<+k+k+l+;#;#'#-#<@a )#o@>#i@S@S@[@y@y@y@z@z@P@!#&+~#&#|.Y@*#{#]#*#^#J@/#,#,#,#,#f .       ",
". $ k+k+).V+V+b@<@<@<@<@o@o@d@d@d@y@y@z@z@P@P@P@P@&#&#&#Y@Y@*#*#*#*#*#(#(#,#,#,#,#,#,#f .       ",
". $ ).V+b@<@<@( L@o@_#G d@:#<#[#}#z@|#1#P@P@&#&#2#y+'#l.*#I@f++#~#C@_ 3#4#5#o ,#,#6#6#f .       ",
". $ b@<@<@<@o@c@c@c@c@d@d@z@z@z@z@P@P@&#&#&#7#7#Y@*#*#*#*#(#(#,#,#,#,#,#,#,#,#6#6#6#6#f .       ",
". $ o@o@c@c@c@f+c@8#U@9#z@0#( ^ 1 i+a#b#7#Q@*#*#c#;#*#{#d#e#,#f#S@,#g#,#h#S+i#6#6#j#j#f .       ",
". $ c@c@c@d@d@m@m@y@z@z@z@&#&#&#&#&#Q@Q@*#*#*#*#*#,#,#,#,#,#,#,#,#,#k#6#6#6#6#j#j#j#j#f .       ",
". $ d@m@m@m@m@e#a+z@l#4#9#m#n#&#o#p#*#q#*#*#*#,#Z@D@,#r#s#t#u#v#7 6#@#V@_@w#_#j#j#x#x#f .       ",
". $ m@m@m@z@P@P@P@P@&#&#&#7#7#Q@*#*#*#*#(#(#,#,#,#,#,#k#k#6#6#6#6#6#6#j#j#j#j#x#x#x#x#f .       ",
". $ n@P@P@P@P@*+_#l#a#+ 7#a#]#*#y#f+-+,#,#,#,#,#m#z#A#B#C#D#E#m#E#F#>#G#j#x#x#x#x#x#x#f .       ",
". $ P@&#&#&#7#7#7#7#Q@Q@*#(#(#(#,#,#,#,#,#,#,#6#6#6#6#6#6#6#6#j#j#j#j#x#x#x#x#x#x#x#x#f .       ",
". $ &#7#7#7#Q@Q@Q@Q@(#(#,#,#,#,#,#,#,#,#,#6#6#6#6#6#6#6#6#j#j#j#j#x#x#x#x#x#x#x#x#x#x#f .       ",
". $ 7#Q@Q@Q@Q@Y@(#,#,#,#,#,#,#,#,#,#,#6#6#6#6#6#6#6#6#j#j#j#j#x#x#x#x#x#x#x#x#x#x#x#x#f .       ",
". # Q@Q@Q@*#,#,#,#,#,#,#,#,#,#,#k#6#6#6#6#6#6#6#6#j#j#j#j#x#x#x#x#x#x#x#x#x#x#x#x#x#x#D..       ",
". z f f f f f f f f f f f f f f f f f f f f f f f f f f f f f f f f f f f f f f f f D.H#.       ",
"  . . . . . . . . . . . . . . . . . . . . . . . . . . . . . . . . . . . . . . . . . . . .       ",
"                                                                                                ",
"                                                                                                ",
"                                                                                                "};
